<?xml version="1.0" encoding="UTF-8"?>
<svg version="1.1" xmlns="http://www.w3.org/2000/svg" width="1024" height="1024">
<path d="M0 0 C337.92 0 675.84 0 1024 0 C1024 337.92 1024 675.84 1024 1024 C686.08 1024 348.16 1024 0 1024 C0 686.08 0 348.16 0 0 Z " fill="#FEFCFA" transform="translate(0,0)"/>
<path d="M0 0 C0.650177 -0.00453111 1.30035399 -0.00906223 1.97023332 -0.01373065 C4.12934873 -0.02629972 6.28820945 -0.02475917 8.44735718 -0.02310181 C10.00363485 -0.02909193 11.55990957 -0.03589859 13.11618042 -0.04345703 C17.33139637 -0.06107936 21.54653103 -0.06581094 25.76178026 -0.0670886 C28.40070845 -0.0685134 31.03961619 -0.07278932 33.67853928 -0.07808304 C42.90064548 -0.09657399 52.12269399 -0.10475521 61.34481812 -0.10317993 C69.91478868 -0.10198022 78.48450671 -0.12305146 87.05441344 -0.15466726 C94.43220335 -0.1809063 101.8099112 -0.19154397 109.18774736 -0.19026911 C113.58512087 -0.18976153 117.98227004 -0.19533084 122.37959671 -0.21662521 C126.52150452 -0.23613555 130.66297703 -0.23604573 134.80490112 -0.22159195 C136.31525694 -0.21951819 137.82564093 -0.2241181 139.33594894 -0.23631287 C153.41412029 -0.34251648 166.0194152 2.1651186 177.17147827 11.26742554 C184.44509958 18.66349838 190.3170826 27.92679001 190.28500366 38.57699585 C190.28492813 39.41756531 190.2848526 40.25813477 190.28477478 41.12417603 C190.27961349 42.02222961 190.27445221 42.9202832 190.26913452 43.84555054 C190.2670121 45.23541168 190.2670121 45.23541168 190.2648468 46.65335083 C190.25925651 49.60807546 190.24670577 52.56272387 190.23397827 55.51742554 C190.22896202 57.52263277 190.22439933 59.5278412 190.2203064 61.53305054 C190.20929026 66.44453817 190.19203227 71.35596894 190.17147827 76.26742554 C191.20031631 76.25648109 191.20031631 76.25648109 192.24993896 76.24531555 C193.15007721 76.23964066 194.05021545 76.23396576 194.97763062 76.2281189 C195.86977264 76.2208226 196.76191467 76.21352631 197.68109131 76.20600891 C205.40391023 76.39646505 212.03989194 80.17174064 217.51522827 85.40023804 C224.45801697 93.22724982 224.40142242 101.02266415 224.48397827 111.01742554 C224.51298218 112.17242554 224.54198608 113.32742554 224.5718689 114.51742554 C224.62183864 121.25180888 224.39144043 126.78938816 220.17147827 132.26742554 C219.10955479 133.13874737 218.037659 133.99804285 216.95663452 134.84555054 C213.71139307 137.88330096 213.67446424 140.65902039 213.48007202 145.00180054 C213.4871129 147.68085328 213.52760537 150.34135767 213.60897827 153.01742554 C213.63357988 154.42716325 213.65750208 155.83691299 213.68075562 157.24667358 C213.90098886 167.44086363 214.58363821 177.37740724 217.17147827 187.26742554 C217.3488855 187.95385132 217.52629272 188.6402771 217.70907593 189.34750366 C222.6893231 207.71401316 232.16730499 224.58562686 240.96322632 241.34555054 C247.45530291 253.72057261 253.53874181 266.05631201 258.17147827 279.26742554 C258.42075073 279.97640991 258.67002319 280.68539429 258.92684937 281.41586304 C269.84161453 313.05030699 271.75822165 348.5722526 257.4715271 379.42782593 C246.84361615 401.24328814 229.40616328 416.6325201 206.63632202 425.07992554 C201.10386674 426.97605452 196.0630073 428.26742554 190.17147827 428.26742554 C190.17147827 433.87742554 190.17147827 439.48742554 190.17147827 445.26742554 C191.99034546 445.22101929 193.80921265 445.17461304 195.68319702 445.12680054 C198.07510768 445.08928037 200.4670361 445.05288048 202.85897827 445.01742554 C204.05716187 444.98390991 205.25534546 444.95039429 206.48983765 444.91586304 C207.64677124 444.90297241 208.80370483 444.89008179 209.99569702 444.87680054 C211.05877075 444.85585327 212.12184448 444.83490601 213.21713257 444.81332397 C216.89238522 445.37823348 218.52419061 446.71248857 221.17147827 449.26742554 C222.70231121 452.32909142 222.37603969 455.54636476 222.40975952 458.90805054 C222.41783127 459.66785217 222.42590302 460.42765381 222.43421936 461.21047974 C222.44805965 462.82107258 222.45878206 464.43169476 222.46664429 466.04232788 C222.48381587 468.49423664 222.52769461 470.94478213 222.5718689 473.39633179 C222.58199983 474.96272814 222.59051468 476.52913594 222.59725952 478.09555054 C222.61476761 478.82389099 222.6322757 479.55223145 222.65031433 480.30264282 C222.62852731 485.46958006 221.52247517 488.35868397 218.17147827 492.26742554 C212.76561511 496.98938483 207.99823126 496.83459492 201.01229858 496.77536011 C199.32036818 496.78472005 199.32036818 496.78472005 197.59425735 496.79426908 C193.81249373 496.81023114 190.03137175 496.79758152 186.24960327 496.78500366 C183.53926259 496.78822279 180.8289492 496.79740035 178.11862183 496.8062439 C171.51997171 496.82402555 164.92150364 496.82019078 158.32284641 496.80859333 C152.9597531 496.79955786 147.5967108 496.79833549 142.23361206 496.8026886 C141.08843042 496.803608 141.08843042 496.803608 139.9201138 496.80454597 C138.36914538 496.80582488 136.81817697 496.80712173 135.26720858 496.80843633 C120.72553964 496.81984109 106.18397159 496.80673009 91.6423192 496.78523487 C79.16631129 496.76736396 66.69045225 496.7704681 54.21444702 496.78890991 C39.72463403 496.81031849 25.23490945 496.81874247 10.74508286 496.80646086 C9.19983674 496.80518667 7.65459062 496.80392918 6.10934448 496.8026886 C5.34906425 496.8020715 4.58878401 496.80145439 3.80546498 496.80081859 C-1.55086436 496.79736565 -6.9071376 496.80319283 -12.26345825 496.81260681 C-18.79152864 496.82382805 -25.31940666 496.82078426 -31.84745502 496.79948384 C-35.17796067 496.78897468 -38.50788018 496.78700332 -41.83842468 496.79808044 C-45.44905207 496.80898333 -49.05877269 496.79533417 -52.66934204 496.77536011 C-53.721674 496.78428299 -54.77400597 496.79320588 -55.85822678 496.80239916 C-61.83938702 496.73805784 -65.26080773 496.23261292 -69.82852173 492.26742554 C-73.75873676 487.79511188 -73.9962885 483.67770249 -74.03164673 477.93148804 C-74.04019684 476.85693863 -74.04019684 476.85693863 -74.04891968 475.76068115 C-74.05835709 474.24601717 -74.06489866 472.73133276 -74.0687561 471.21664429 C-74.07845762 468.90768351 -74.10948948 466.59961485 -74.14102173 464.29086304 C-74.14755278 462.81690997 -74.15280285 461.34295056 -74.15664673 459.86898804 C-74.16899353 459.18237091 -74.18134033 458.49575378 -74.19406128 457.78833008 C-74.17397148 453.43295596 -73.50600249 450.7205444 -70.82852173 447.26742554 C-67.38218291 444.96986632 -66.11783782 445.03098578 -62.06680298 445.07211304 C-60.94854126 445.07855835 -59.83027954 445.08500366 -58.6781311 445.09164429 C-57.51088501 445.1084021 -56.34363892 445.12515991 -55.14102173 445.14242554 C-53.37275024 445.15596069 -53.37275024 445.15596069 -51.5687561 445.16976929 C-48.65514147 445.19336131 -45.74193281 445.22628013 -42.82852173 445.26742554 C-42.83004061 444.40904628 -42.83155949 443.55066702 -42.8331244 442.66627628 C-42.92266066 391.77783858 -42.99128008 340.88940926 -43.03278305 290.00090854 C-43.0377858 283.88898243 -43.0429631 277.77705649 -43.04824829 271.66513062 C-43.04929753 270.44836982 -43.05034677 269.23160903 -43.05142781 267.9779767 C-43.06882718 248.28322811 -43.10036232 228.58852628 -43.13713291 208.89380542 C-43.1745553 188.68121376 -43.19676034 168.46864656 -43.20487571 148.25602168 C-43.21036077 135.78642341 -43.2276773 123.31695731 -43.2601876 110.84739973 C-43.28135147 102.29347472 -43.28771751 93.73961792 -43.28252724 85.18566862 C-43.2799684 80.25244337 -43.28385698 75.3194489 -43.30534363 70.3862648 C-43.32489757 65.86364558 -43.32573467 61.34141101 -43.31211731 56.81877359 C-43.31043584 55.18866643 -43.31543485 53.55853466 -43.32805446 51.92847548 C-43.43506972 37.24323937 -41.21136161 24.13296253 -30.79336548 13.11508179 C-22.18895781 4.96593378 -11.97907193 0.03471518 0 0 Z " fill="#FDFBFA" transform="translate(164.82852172851563,258.7325744628906)"/>
<path d="M0 0 C0.650177 -0.00453111 1.30035399 -0.00906223 1.97023332 -0.01373065 C4.12934873 -0.02629972 6.28820945 -0.02475917 8.44735718 -0.02310181 C10.00363485 -0.02909193 11.55990957 -0.03589859 13.11618042 -0.04345703 C17.33139637 -0.06107936 21.54653103 -0.06581094 25.76178026 -0.0670886 C28.40070845 -0.0685134 31.03961619 -0.07278932 33.67853928 -0.07808304 C42.90064548 -0.09657399 52.12269399 -0.10475521 61.34481812 -0.10317993 C69.91478868 -0.10198022 78.48450671 -0.12305146 87.05441344 -0.15466726 C94.43220335 -0.1809063 101.8099112 -0.19154397 109.18774736 -0.19026911 C113.58512087 -0.18976153 117.98227004 -0.19533084 122.37959671 -0.21662521 C126.52150452 -0.23613555 130.66297703 -0.23604573 134.80490112 -0.22159195 C136.31525694 -0.21951819 137.82564093 -0.2241181 139.33594894 -0.23631287 C153.41412029 -0.34251648 166.0194152 2.1651186 177.17147827 11.26742554 C184.44509958 18.66349838 190.3170826 27.92679001 190.28500366 38.57699585 C190.28492813 39.41756531 190.2848526 40.25813477 190.28477478 41.12417603 C190.27961349 42.02222961 190.27445221 42.9202832 190.26913452 43.84555054 C190.2670121 45.23541168 190.2670121 45.23541168 190.2648468 46.65335083 C190.25925651 49.60807546 190.24670577 52.56272387 190.23397827 55.51742554 C190.22896202 57.52263277 190.22439933 59.5278412 190.2203064 61.53305054 C190.20929026 66.44453817 190.19203227 71.35596894 190.17147827 76.26742554 C191.20031631 76.25648109 191.20031631 76.25648109 192.24993896 76.24531555 C193.15007721 76.23964066 194.05021545 76.23396576 194.97763062 76.2281189 C195.86977264 76.2208226 196.76191467 76.21352631 197.68109131 76.20600891 C205.40391023 76.39646505 212.03989194 80.17174064 217.51522827 85.40023804 C224.45801697 93.22724982 224.40142242 101.02266415 224.48397827 111.01742554 C224.51298218 112.17242554 224.54198608 113.32742554 224.5718689 114.51742554 C224.62183864 121.25180888 224.39144043 126.78938816 220.17147827 132.26742554 C219.10955479 133.13874737 218.037659 133.99804285 216.95663452 134.84555054 C213.71139307 137.88330096 213.67446424 140.65902039 213.48007202 145.00180054 C213.4871129 147.68085328 213.52760537 150.34135767 213.60897827 153.01742554 C213.63357988 154.42716325 213.65750208 155.83691299 213.68075562 157.24667358 C213.90098886 167.44086363 214.58363821 177.37740724 217.17147827 187.26742554 C217.3488855 187.95385132 217.52629272 188.6402771 217.70907593 189.34750366 C222.6893231 207.71401316 232.16730499 224.58562686 240.96322632 241.34555054 C247.45530291 253.72057261 253.53874181 266.05631201 258.17147827 279.26742554 C258.42075073 279.97640991 258.67002319 280.68539429 258.92684937 281.41586304 C269.84161453 313.05030699 271.75822165 348.5722526 257.4715271 379.42782593 C246.84361615 401.24328814 229.40616328 416.6325201 206.63632202 425.07992554 C201.10386674 426.97605452 196.0630073 428.26742554 190.17147827 428.26742554 C190.17147827 433.87742554 190.17147827 439.48742554 190.17147827 445.26742554 C191.99034546 445.22101929 193.80921265 445.17461304 195.68319702 445.12680054 C198.07510768 445.08928037 200.4670361 445.05288048 202.85897827 445.01742554 C204.05716187 444.98390991 205.25534546 444.95039429 206.48983765 444.91586304 C207.64677124 444.90297241 208.80370483 444.89008179 209.99569702 444.87680054 C211.05877075 444.85585327 212.12184448 444.83490601 213.21713257 444.81332397 C216.89238522 445.37823348 218.52419061 446.71248857 221.17147827 449.26742554 C222.70231121 452.32909142 222.37603969 455.54636476 222.40975952 458.90805054 C222.41783127 459.66785217 222.42590302 460.42765381 222.43421936 461.21047974 C222.44805965 462.82107258 222.45878206 464.43169476 222.46664429 466.04232788 C222.48381587 468.49423664 222.52769461 470.94478213 222.5718689 473.39633179 C222.58199983 474.96272814 222.59051468 476.52913594 222.59725952 478.09555054 C222.61476761 478.82389099 222.6322757 479.55223145 222.65031433 480.30264282 C222.62852731 485.46958006 221.52247517 488.35868397 218.17147827 492.26742554 C212.76561511 496.98938483 207.99823126 496.83459492 201.01229858 496.77536011 C199.32036818 496.78472005 199.32036818 496.78472005 197.59425735 496.79426908 C193.81249373 496.81023114 190.03137175 496.79758152 186.24960327 496.78500366 C183.53926259 496.78822279 180.8289492 496.79740035 178.11862183 496.8062439 C171.51997171 496.82402555 164.92150364 496.82019078 158.32284641 496.80859333 C152.9597531 496.79955786 147.5967108 496.79833549 142.23361206 496.8026886 C141.08843042 496.803608 141.08843042 496.803608 139.9201138 496.80454597 C138.36914538 496.80582488 136.81817697 496.80712173 135.26720858 496.80843633 C120.72553964 496.81984109 106.18397159 496.80673009 91.6423192 496.78523487 C79.16631129 496.76736396 66.69045225 496.7704681 54.21444702 496.78890991 C39.72463403 496.81031849 25.23490945 496.81874247 10.74508286 496.80646086 C9.19983674 496.80518667 7.65459062 496.80392918 6.10934448 496.8026886 C5.34906425 496.8020715 4.58878401 496.80145439 3.80546498 496.80081859 C-1.55086436 496.79736565 -6.9071376 496.80319283 -12.26345825 496.81260681 C-18.79152864 496.82382805 -25.31940666 496.82078426 -31.84745502 496.79948384 C-35.17796067 496.78897468 -38.50788018 496.78700332 -41.83842468 496.79808044 C-45.44905207 496.80898333 -49.05877269 496.79533417 -52.66934204 496.77536011 C-53.721674 496.78428299 -54.77400597 496.79320588 -55.85822678 496.80239916 C-61.83938702 496.73805784 -65.26080773 496.23261292 -69.82852173 492.26742554 C-73.75873676 487.79511188 -73.9962885 483.67770249 -74.03164673 477.93148804 C-74.04019684 476.85693863 -74.04019684 476.85693863 -74.04891968 475.76068115 C-74.05835709 474.24601717 -74.06489866 472.73133276 -74.0687561 471.21664429 C-74.07845762 468.90768351 -74.10948948 466.59961485 -74.14102173 464.29086304 C-74.14755278 462.81690997 -74.15280285 461.34295056 -74.15664673 459.86898804 C-74.16899353 459.18237091 -74.18134033 458.49575378 -74.19406128 457.78833008 C-74.17397148 453.43295596 -73.50600249 450.7205444 -70.82852173 447.26742554 C-67.38218291 444.96986632 -66.11783782 445.03098578 -62.06680298 445.07211304 C-60.94854126 445.07855835 -59.83027954 445.08500366 -58.6781311 445.09164429 C-57.51088501 445.1084021 -56.34363892 445.12515991 -55.14102173 445.14242554 C-53.37275024 445.15596069 -53.37275024 445.15596069 -51.5687561 445.16976929 C-48.65514147 445.19336131 -45.74193281 445.22628013 -42.82852173 445.26742554 C-42.83004061 444.40904628 -42.83155949 443.55066702 -42.8331244 442.66627628 C-42.92266066 391.77783858 -42.99128008 340.88940926 -43.03278305 290.00090854 C-43.0377858 283.88898243 -43.0429631 277.77705649 -43.04824829 271.66513062 C-43.04929753 270.44836982 -43.05034677 269.23160903 -43.05142781 267.9779767 C-43.06882718 248.28322811 -43.10036232 228.58852628 -43.13713291 208.89380542 C-43.1745553 188.68121376 -43.19676034 168.46864656 -43.20487571 148.25602168 C-43.21036077 135.78642341 -43.2276773 123.31695731 -43.2601876 110.84739973 C-43.28135147 102.29347472 -43.28771751 93.73961792 -43.28252724 85.18566862 C-43.2799684 80.25244337 -43.28385698 75.3194489 -43.30534363 70.3862648 C-43.32489757 65.86364558 -43.32573467 61.34141101 -43.31211731 56.81877359 C-43.31043584 55.18866643 -43.31543485 53.55853466 -43.32805446 51.92847548 C-43.43506972 37.24323937 -41.21136161 24.13296253 -30.79336548 13.11508179 C-22.18895781 4.96593378 -11.97907193 0.03471518 0 0 Z M-21.82852173 26.26742554 C-27.80703142 34.56397056 -27.52339989 43.24398995 -27.42979431 52.99719238 C-27.43197705 54.69287037 -27.43635929 56.3885467 -27.44274014 58.08421409 C-27.45388341 62.72508238 -27.43397174 67.36537017 -27.40884984 72.00616455 C-27.38721031 77.01762317 -27.39456774 82.02905039 -27.39836121 87.0405426 C-27.40097998 95.71705982 -27.38532371 104.3933887 -27.35717201 113.06985855 C-27.31649629 125.61446702 -27.30351061 138.15898463 -27.29723205 150.70365189 C-27.28629528 171.05764366 -27.25303776 191.4115351 -27.20571899 211.76547241 C-27.15980748 231.53467312 -27.12448069 251.30384643 -27.10317993 271.0730896 C-27.10183994 272.30456836 -27.10049996 273.53604712 -27.09911937 274.80484343 C-27.08872195 284.43615198 -27.07893743 294.06746113 -27.06934655 303.69877052 C-27.0221981 350.88841428 -26.92160198 398.07780684 -26.82852173 445.26742554 C39.83147827 445.26742554 106.49147827 445.26742554 175.17147827 445.26742554 C175.17147827 440.31742554 175.17147827 435.36742554 175.17147827 430.26742554 C173.52856812 430.25284302 171.88565796 430.2382605 170.19296265 430.22323608 C164.0275526 430.16473797 157.86248834 430.0875128 151.69735718 430.00497437 C149.04204837 429.97041154 146.38701186 429.94386216 143.73153687 429.92098999 C97.62354802 429.51318505 97.62354802 429.51318505 80.78475952 414.07992554 C74.41509482 407.51022177 70.23770103 400.28889937 68.62850952 391.20101929 C68.10150912 388.2252501 67.63570436 385.91762913 66.17147827 383.26742554 C63.26436109 381.70412215 60.50059852 380.94331741 57.30429077 380.13461304 C48.81507333 377.7847299 42.12173919 371.363878 37.17147827 364.26742554 C32.65234009 355.45342402 31.01526956 347.84251897 31.03866577 338.06430054 C31.03770905 337.18590515 31.03675232 336.30750977 31.0357666 335.40249634 C31.03508808 333.55343555 31.03691942 331.70437234 31.04110718 329.85531616 C31.04648577 327.01346564 31.04113797 324.17177133 31.03475952 321.32992554 C31.03541986 319.53305019 31.0367001 317.73617493 31.03866577 315.93930054 C31.03664154 315.08519592 31.03461731 314.23109131 31.03253174 313.35110474 C31.05651078 307.38239303 31.05651078 307.38239303 32.17147827 306.26742554 C34.18742409 306.03314776 36.20995227 305.85406429 38.23397827 305.70492554 C39.89106812 305.57924194 39.89106812 305.57924194 41.58163452 305.45101929 C42.43628296 305.39043335 43.2909314 305.32984741 44.17147827 305.26742554 C44.18606079 304.34405396 44.20064331 303.42068237 44.21566772 302.46932983 C44.27674135 299.04165349 44.35089437 295.61477891 44.43392944 292.18759155 C44.4671725 290.70462699 44.4952065 289.2215361 44.51791382 287.7383728 C44.55147295 285.60558261 44.60378465 283.47394942 44.65975952 281.34164429 C44.6859436 280.05862427 44.71212769 278.77560425 44.73910522 277.45370483 C45.17147827 274.26742554 45.17147827 274.26742554 46.48471069 272.34872437 C49.35070865 270.51148237 51.88333014 270.91512395 55.17147827 271.26742554 C56.85824585 272.34872437 56.85824585 272.34872437 58.17147827 274.26742554 C58.60385132 277.45370483 58.60385132 277.45370483 58.68319702 281.34164429 C58.71630981 282.59292114 58.74942261 283.844198 58.78353882 285.13339233 C58.80843384 286.72449829 58.83332886 288.31560425 58.85897827 289.95492554 C58.96210327 295.00805054 59.06522827 300.06117554 59.17147827 305.26742554 C69.73147827 305.26742554 80.29147827 305.26742554 91.17147827 305.26742554 C91.34181154 295.57484635 91.34181154 295.57484635 91.46932983 285.88168335 C91.49994507 284.67350952 91.5305603 283.46533569 91.56210327 282.22055054 C91.58305054 280.98466187 91.6039978 279.74877319 91.62557983 278.47543335 C92.26417477 274.72268853 93.13924937 273.50481167 96.17147827 271.26742554 C100.27925576 270.76443237 101.6802381 270.93993209 105.17147827 273.26742554 C105.50962575 275.74233668 105.66020166 277.98094242 105.68319702 280.46273804 C105.70114822 281.17018158 105.71909943 281.87762512 105.7375946 282.60650635 C105.7918227 284.86841856 105.82563143 287.13011838 105.85897827 289.39242554 C105.89214053 290.92500727 105.92662917 292.45756092 105.9624939 293.99008179 C106.04755554 297.74904333 106.1143058 301.50794054 106.17147827 305.26742554 C107.02612671 305.32801147 107.88077515 305.38859741 108.76132202 305.45101929 C109.86604858 305.53480835 110.97077515 305.61859741 112.10897827 305.70492554 C113.21112671 305.78613647 114.31327515 305.86734741 115.44882202 305.95101929 C118.17147827 306.26742554 118.17147827 306.26742554 119.17147827 307.26742554 C119.29770161 310.18031584 119.36020718 313.06810054 119.37460327 315.98226929 C119.38030334 316.86717545 119.38600342 317.7520816 119.39187622 318.6638031 C119.40134841 320.54606932 119.40786896 322.4283523 119.41171265 324.31063843 C119.42133268 327.16177501 119.45229814 330.01216414 119.48397827 332.86312866 C119.49051686 334.6945046 119.49576396 336.5258857 119.49960327 338.35726929 C119.51195007 339.19934433 119.52429688 340.04141937 119.53701782 340.90901184 C119.49338185 352.7862707 114.97860825 363.21469592 107.04647827 372.01742554 C100.17712998 378.4460413 91.31192575 381.74401762 82.17147827 383.26742554 C82.99252595 392.9147358 86.96073604 400.75258656 94.17147827 407.26742554 C105.48836798 415.28457419 121.24870443 415.42647032 134.54647827 415.36508179 C136.29408447 415.36295937 136.29408447 415.36295937 138.07699585 415.36079407 C141.77518347 415.35522469 145.47330914 415.34267784 149.17147827 415.32992554 C151.68840448 415.32490658 154.20533164 415.32034437 156.72225952 415.31625366 C162.87202001 415.3052653 169.02174472 415.28855782 175.17147827 415.26742554 C175.28592471 367.28270896 175.37402771 319.29800682 175.42680492 271.31318066 C175.43305845 265.64802639 175.43953006 259.98287238 175.44613647 254.31771851 C175.44744803 253.18988923 175.44875958 252.06205995 175.45011088 250.90005402 C175.47186691 232.63883064 175.51128957 214.37768597 175.55724225 196.11650927 C175.6040013 177.37860027 175.63177252 158.64073249 175.64192075 139.90276754 C175.64878102 128.34058589 175.67044795 116.77862672 175.71106061 105.21651356 C175.73749211 97.28773707 175.74547831 89.35907558 175.73898516 81.43025823 C175.73578293 76.85581486 175.7406887 72.28176025 175.76750565 67.70738602 C175.79189718 63.51606544 175.7930279 59.3253938 175.77597275 55.1340429 C175.77386593 53.62107589 175.78015883 52.10806783 175.79589418 50.59518118 C175.90257241 39.70149627 174.26441823 31.77096266 166.98397827 23.39242554 C158.51952637 15.70799233 148.4214743 15.68584787 137.58334351 15.74984741 C136.02998196 15.74441764 134.47662557 15.7372902 132.92327881 15.72860718 C128.73112154 15.71047386 124.53936092 15.71739925 120.34719729 15.73012352 C115.94584564 15.7403015 111.54452631 15.73084475 107.14317322 15.72457886 C99.7551671 15.71731712 92.36732133 15.72685213 84.9793396 15.74594116 C76.45407662 15.76771517 67.92919627 15.76064883 59.40394253 15.73863554 C52.06519893 15.72044904 44.72657011 15.71793882 37.38781124 15.72839022 C33.01299304 15.73460629 28.63835436 15.73551283 24.2635479 15.72224426 C20.15029853 15.71063858 16.0375398 15.71879683 11.92434311 15.74182129 C10.42038218 15.74708298 8.91637952 15.74563838 7.41243553 15.73677063 C-4.27168373 15.67425994 -13.71192389 17.25749786 -21.82852173 26.26742554 Z " fill="#01589C" transform="translate(164.82852172851563,258.7325744628906)"/>
<path d="M0 0 C1.63132622 -0.01292336 1.63132622 -0.01292336 3.29560852 -0.02610779 C6.86203351 -0.04866268 10.42766611 -0.04204827 13.99414062 -0.03295898 C16.48938224 -0.03819879 18.98462186 -0.04447658 21.4798584 -0.05174255 C27.36447092 -0.06345333 33.248803 -0.05391226 39.13339567 -0.0373382 C43.81127036 -0.02639955 48.4886909 -0.03853005 53.16650391 -0.06347656 C59.64261016 -0.09761234 66.11825113 -0.10711892 72.59443665 -0.09669304 C75.05350184 -0.09587557 77.51258239 -0.10269967 79.97160339 -0.11746407 C83.41519428 -0.13497388 86.85725075 -0.12031221 90.30078125 -0.09765625 C91.3057515 -0.10934845 92.31072174 -0.12104065 93.34614563 -0.13308716 C101.27245918 -0.02751948 107.89425145 2.06205271 113.80332184 7.52316952 C121.39829802 15.54675465 122.09414331 22.78053685 122.05444336 33.47021484 C122.06130661 34.76215256 122.06816986 36.05409027 122.07524109 37.38517761 C122.09312342 40.91432016 122.09201308 44.44321338 122.0862987 47.97238755 C122.08319856 50.92686951 122.0893087 53.88130416 122.09533745 56.83577937 C122.10936595 63.81162115 122.10783643 70.78734043 122.09643555 77.76318359 C122.08496589 84.93928622 122.09901415 92.1150146 122.12583202 99.2910679 C122.14805055 105.46968477 122.15461231 111.64818472 122.14875561 117.82683867 C122.14539826 121.50926691 122.14771852 125.19145554 122.16500664 128.87384987 C122.18346921 132.98563621 122.16922576 137.0967039 122.15209961 141.20849609 C122.16660156 143.01756943 122.16660156 143.01756943 122.18139648 144.8631897 C122.10842136 153.25682372 120.91844331 160.55799856 115.46679688 167.18969727 C114.35111328 168.10235352 114.35111328 168.10235352 113.21289062 169.03344727 C112.47167969 169.66250977 111.73046875 170.29157227 110.96679688 170.93969727 C106.98810618 173.67714382 103.4885206 174.78111474 98.67463684 174.80760193 C97.20932022 174.82256462 97.20932022 174.82256462 95.71440125 174.83782959 C94.65405167 174.83849426 93.59370209 174.83915894 92.5012207 174.83984375 C91.37538574 174.84816727 90.24955078 174.85649078 89.08959961 174.86506653 C85.36633852 174.88916797 81.64325271 174.89793974 77.91992188 174.90454102 C75.3278549 174.91350846 72.73578845 174.92263032 70.14372253 174.93190002 C64.70737095 174.94839386 59.27108975 174.95612355 53.8347168 174.95898438 C47.57085095 174.96261378 41.30747683 174.99246953 35.04376107 175.03438896 C28.99905242 175.07341038 22.95461402 175.08457984 16.90976524 175.08571053 C14.34741237 175.08990758 11.78505888 175.10232098 9.22278786 175.12322807 C5.63027305 175.15020365 2.03909893 175.14529665 -1.5534668 175.1328125 C-2.60369522 175.14764679 -3.65392365 175.16248108 -4.73597717 175.17776489 C-12.96529496 175.09668519 -19.61920594 172.91711449 -25.78710938 167.32250977 C-26.30273438 166.60836914 -26.81835938 165.89422852 -27.34960938 165.15844727 C-27.88585937 164.44946289 -28.42210937 163.74047852 -28.97460938 163.01000977 C-32.92770187 155.88995112 -32.64617667 148.73307643 -32.64013672 140.78027344 C-32.64685394 139.50784286 -32.65357117 138.23541229 -32.66049194 136.92442322 C-32.67808581 133.44905107 -32.68284452 129.97377755 -32.68412352 126.49836516 C-32.68554947 124.32245544 -32.68982746 122.14657044 -32.69511795 119.97066689 C-32.71359659 112.36649623 -32.72179131 104.76239549 -32.72021484 97.15820312 C-32.71901413 90.09117715 -32.74010797 83.02445692 -32.77170217 75.95750827 C-32.79792919 69.87232101 -32.80857945 63.78723323 -32.80730402 57.70198995 C-32.80679626 54.07543467 -32.81237579 50.44915134 -32.83366013 46.82265282 C-32.85678035 42.77316048 -32.84748257 38.72434525 -32.83544922 34.67480469 C-32.84668823 33.48745728 -32.85792725 32.30010986 -32.86950684 31.07678223 C-32.80257083 22.18574372 -31.31879341 14.43576605 -25.22460938 7.65844727 C-17.96242802 1.10283141 -9.44183339 -0.06131153 0 0 Z " fill="#FCFBFA" transform="translate(194.349609375,305.466552734375)"/>
<path d="M0 0 C2.31 0 4.62 0 7 0 C7.01458252 0.68811768 7.02916504 1.37623535 7.04418945 2.08520508 C7.99780838 42.58536702 19.34458236 75.28939857 38.57421875 110.7734375 C56.22958739 143.40187802 68.98231441 182.03370399 58.37646484 219.06616211 C54.68780366 231.18871854 49.48150704 241.48848072 41 251 C40.37222656 251.71027344 39.74445313 252.42054688 39.09765625 253.15234375 C28.3713001 264.58062913 15.16150744 270.24336228 0 273 C0 182.91 0 92.82 0 0 Z " fill="#FCFBFA" transform="translate(355,399)"/>
<path d="M0 0 C1.63132622 -0.01292336 1.63132622 -0.01292336 3.29560852 -0.02610779 C6.86203351 -0.04866268 10.42766611 -0.04204827 13.99414062 -0.03295898 C16.48938224 -0.03819879 18.98462186 -0.04447658 21.4798584 -0.05174255 C27.36447092 -0.06345333 33.248803 -0.05391226 39.13339567 -0.0373382 C43.81127036 -0.02639955 48.4886909 -0.03853005 53.16650391 -0.06347656 C59.64261016 -0.09761234 66.11825113 -0.10711892 72.59443665 -0.09669304 C75.05350184 -0.09587557 77.51258239 -0.10269967 79.97160339 -0.11746407 C83.41519428 -0.13497388 86.85725075 -0.12031221 90.30078125 -0.09765625 C91.3057515 -0.10934845 92.31072174 -0.12104065 93.34614563 -0.13308716 C101.27245918 -0.02751948 107.89425145 2.06205271 113.80332184 7.52316952 C121.39829802 15.54675465 122.09414331 22.78053685 122.05444336 33.47021484 C122.06130661 34.76215256 122.06816986 36.05409027 122.07524109 37.38517761 C122.09312342 40.91432016 122.09201308 44.44321338 122.0862987 47.97238755 C122.08319856 50.92686951 122.0893087 53.88130416 122.09533745 56.83577937 C122.10936595 63.81162115 122.10783643 70.78734043 122.09643555 77.76318359 C122.08496589 84.93928622 122.09901415 92.1150146 122.12583202 99.2910679 C122.14805055 105.46968477 122.15461231 111.64818472 122.14875561 117.82683867 C122.14539826 121.50926691 122.14771852 125.19145554 122.16500664 128.87384987 C122.18346921 132.98563621 122.16922576 137.0967039 122.15209961 141.20849609 C122.16660156 143.01756943 122.16660156 143.01756943 122.18139648 144.8631897 C122.10842136 153.25682372 120.91844331 160.55799856 115.46679688 167.18969727 C114.35111328 168.10235352 114.35111328 168.10235352 113.21289062 169.03344727 C112.47167969 169.66250977 111.73046875 170.29157227 110.96679688 170.93969727 C106.98810618 173.67714382 103.4885206 174.78111474 98.67463684 174.80760193 C97.20932022 174.82256462 97.20932022 174.82256462 95.71440125 174.83782959 C94.65405167 174.83849426 93.59370209 174.83915894 92.5012207 174.83984375 C91.37538574 174.84816727 90.24955078 174.85649078 89.08959961 174.86506653 C85.36633852 174.88916797 81.64325271 174.89793974 77.91992188 174.90454102 C75.3278549 174.91350846 72.73578845 174.92263032 70.14372253 174.93190002 C64.70737095 174.94839386 59.27108975 174.95612355 53.8347168 174.95898438 C47.57085095 174.96261378 41.30747683 174.99246953 35.04376107 175.03438896 C28.99905242 175.07341038 22.95461402 175.08457984 16.90976524 175.08571053 C14.34741237 175.08990758 11.78505888 175.10232098 9.22278786 175.12322807 C5.63027305 175.15020365 2.03909893 175.14529665 -1.5534668 175.1328125 C-2.60369522 175.14764679 -3.65392365 175.16248108 -4.73597717 175.17776489 C-12.96529496 175.09668519 -19.61920594 172.91711449 -25.78710938 167.32250977 C-26.30273438 166.60836914 -26.81835938 165.89422852 -27.34960938 165.15844727 C-27.88585937 164.44946289 -28.42210937 163.74047852 -28.97460938 163.01000977 C-32.92770187 155.88995112 -32.64617667 148.73307643 -32.64013672 140.78027344 C-32.64685394 139.50784286 -32.65357117 138.23541229 -32.66049194 136.92442322 C-32.67808581 133.44905107 -32.68284452 129.97377755 -32.68412352 126.49836516 C-32.68554947 124.32245544 -32.68982746 122.14657044 -32.69511795 119.97066689 C-32.71359659 112.36649623 -32.72179131 104.76239549 -32.72021484 97.15820312 C-32.71901413 90.09117715 -32.74010797 83.02445692 -32.77170217 75.95750827 C-32.79792919 69.87232101 -32.80857945 63.78723323 -32.80730402 57.70198995 C-32.80679626 54.07543467 -32.81237579 50.44915134 -32.83366013 46.82265282 C-32.85678035 42.77316048 -32.84748257 38.72434525 -32.83544922 34.67480469 C-32.84668823 33.48745728 -32.85792725 32.30010986 -32.86950684 31.07678223 C-32.80257083 22.18574372 -31.31879341 14.43576605 -25.22460938 7.65844727 C-17.96242802 1.10283141 -9.44183339 -0.06131153 0 0 Z M-15.63075256 19.38781738 C-18.35325974 24.37019863 -17.89707848 29.27642934 -17.85131836 34.86352539 C-17.85672134 36.11443466 -17.86212433 37.36534393 -17.86769104 38.65415955 C-17.8780464 42.07799487 -17.87048672 45.50086188 -17.85397983 48.92461205 C-17.84010935 52.51106518 -17.84659167 56.09748968 -17.85011292 59.68395996 C-17.85281347 65.70629977 -17.8393529 71.72844009 -17.81616211 77.75073242 C-17.7895532 84.70872533 -17.78780577 91.66638475 -17.79955047 98.62441111 C-17.81033788 105.3237423 -17.80413367 112.02295313 -17.78999519 118.72227478 C-17.7842437 121.57066195 -17.78431145 124.4189608 -17.78906059 127.26734924 C-17.7947285 131.24615043 -17.77549196 135.2246193 -17.75366211 139.20336914 C-17.75816376 140.38378281 -17.76266541 141.56419647 -17.76730347 142.78038025 C-17.75739883 143.86545364 -17.7474942 144.95052704 -17.73728943 146.06848145 C-17.73485953 147.00866875 -17.73242964 147.94885605 -17.72992611 148.91753387 C-17.13787787 152.98978939 -15.41797373 155.5258746 -12.45344448 158.32171726 C-9.99033577 159.74037537 -8.51718071 159.91262378 -5.68824768 159.92112732 C-4.75600372 159.93103195 -3.82375977 159.94093658 -2.86326599 159.95114136 C-1.33972252 159.94438889 -1.33972252 159.94438889 0.21459961 159.9375 C1.28979858 159.94436325 2.36499756 159.9512265 3.47277832 159.95829773 C7.03081426 159.97661533 10.58841135 159.972721 14.14648438 159.96704102 C16.61743819 159.97160044 19.08839074 159.97690529 21.55934143 159.98292542 C26.74021554 159.99186631 31.92093559 159.98942217 37.10180664 159.97949219 C43.74446283 159.96800181 50.3865875 159.98821077 57.02917385 160.01740932 C62.13266891 160.03574631 67.23603601 160.0354838 72.33955574 160.0297718 C74.78879606 160.02961828 77.23804489 160.03568801 79.68725395 160.04806328 C83.11077186 160.06292347 86.53330039 160.05233163 89.95678711 160.03515625 C90.97045853 160.04482422 91.98412994 160.05449219 93.02851868 160.06445312 C97.00825826 160.0225979 100.05781101 159.7668512 103.77929688 158.30104065 C106.9929714 153.54759397 106.33416988 148.34428503 106.28149414 142.75024414 C106.28864944 141.43935318 106.29580475 140.12846222 106.30317688 138.77784729 C106.32169656 135.18469744 106.30874966 131.5922893 106.28908658 127.9991703 C106.27270297 124.23873656 106.28151256 120.47834991 106.28660583 116.71789551 C106.29112715 110.40287424 106.27525492 104.08814914 106.24731445 97.77319336 C106.21526211 90.47260957 106.21527798 83.17255994 106.23252922 75.87193823 C106.24839409 68.84848172 106.2416611 61.82522102 106.22459221 54.80177307 C106.21772028 51.81298103 106.21875552 48.82434587 106.22613716 45.83555603 C106.23522217 41.66228571 106.21126535 37.48984032 106.18383789 33.31665039 C106.19036377 32.07496597 106.19688965 30.83328156 106.20361328 29.55397034 C106.19088882 28.41834152 106.17816437 27.28271271 106.16505432 26.1126709 C106.1622474 25.12601692 106.15944048 24.13936295 106.1565485 23.12281036 C105.50535991 19.79151041 104.27601923 18.62119767 101.65039062 16.53344727 C98.84934236 15.59976451 97.15640156 15.40595665 94.26113892 15.3997345 C93.36392624 15.39546951 92.46671356 15.39120453 91.54231262 15.3868103 C90.56042465 15.38726349 89.57853668 15.38771667 88.56689453 15.38818359 C87.53085587 15.38482498 86.4948172 15.38146637 85.42738342 15.37800598 C81.99389454 15.36848751 78.56045439 15.3665524 75.12695312 15.36547852 C72.74425232 15.36226652 70.36155171 15.35890249 67.97885132 15.35539246 C62.98036237 15.34939891 57.98189072 15.34755278 52.98339844 15.34814453 C46.57515789 15.34824616 40.16702814 15.33459439 33.75881386 15.31737232 C28.83634938 15.30625933 23.91391174 15.30422511 18.991436 15.30475426 C16.62872307 15.30357307 14.26600948 15.29914353 11.90330887 15.29142189 C8.59968536 15.28163644 5.29630309 15.28449448 1.99267578 15.29052734 C0.52591652 15.28209808 0.52591652 15.28209808 -0.97047424 15.27349854 C-6.89493538 15.30102251 -10.89748495 15.54008434 -15.63075256 19.38781738 Z " fill="#015A9E" transform="translate(194.349609375,305.466552734375)"/>
<path d="M0 0 C0.33 -1.98 0.66 -3.96 1 -6 C7.6 -6 14.2 -6 21 -6 C21.09071778 5.11885931 21.1639553 16.23746891 21.20724869 27.35661602 C21.22803746 32.52084397 21.25619427 37.68480346 21.30175781 42.84887695 C21.34552836 47.84153153 21.36920244 52.83392946 21.37950897 57.82676125 C21.38684472 59.72236986 21.4011682 61.61796597 21.42292023 63.51346397 C21.59058423 78.74300378 20.61820472 92.03077122 10 104 C-0.60698747 114.60698747 -14.53070864 117.2794288 -28.96069336 117.3190918 C-39.38008515 117.15577845 -49.45068225 114.10072674 -58 108 C-59 106 -59 106 -58.56274414 104.12060547 C-58.30614014 103.37697754 -58.04953613 102.63334961 -57.78515625 101.8671875 C-57.51123047 101.06152344 -57.23730469 100.25585938 -56.95507812 99.42578125 C-56.66052734 98.58402344 -56.36597656 97.74226563 -56.0625 96.875 C-55.77181641 96.02550781 -55.48113281 95.17601562 -55.18164062 94.30078125 C-54.46106999 92.19813251 -53.73361685 90.09812523 -53 88 C-51.90300781 88.56589844 -50.80601562 89.13179688 -49.67578125 89.71484375 C-48.22151727 90.45604926 -46.76708107 91.19691695 -45.3125 91.9375 C-44.59126953 92.31068359 -43.87003906 92.68386719 -43.12695312 93.06835938 C-34.76517798 97.30651938 -25.84741107 98.48524387 -16.55078125 96.46875 C-10.17552935 94.234376 -6.46387683 91.22590397 -3.25 85.375 C-0.84092949 80.30009285 -0.13055833 75.57840155 0 70 C-0.54527344 70.39832031 -1.09054687 70.79664063 -1.65234375 71.20703125 C-11.47700988 78.10948899 -19.91079775 80.22507506 -32 79 C-38.3393127 77.45864592 -43.79623376 74.96477428 -49 71 C-49.804375 70.46375 -50.60875 69.9275 -51.4375 69.375 C-59.70126268 61.71590288 -64.7321597 51.83310249 -65.30859375 40.55078125 C-65.6824846 25.94784602 -63.60251424 13.75290498 -53.25 2.625 C-37.75272355 -11.83517382 -17.08070211 -10.62799242 0 0 Z " fill="#01599C" transform="translate(875,399)"/>
<path d="M0 0 C24.75 0 49.5 0 75 0 C75 6.6 75 13.2 75 20 C57.51 20 40.02 20 22 20 C22 28.91 22 37.82 22 47 C37.84 47 53.68 47 70 47 C70 53.6 70 60.2 70 67 C54.16 67 38.32 67 22 67 C22 76.9 22 86.8 22 97 C39.49 97 56.98 97 75 97 C75 103.6 75 110.2 75 117 C50.25 117 25.5 117 0 117 C0 78.39 0 39.78 0 0 Z " fill="#015A9D" transform="translate(486,512)"/>
<path d="M0 0 C87.12 0 174.24 0 264 0 C264 6.6 264 13.2 264 20 C176.88 20 89.76 20 0 20 C0 13.4 0 6.8 0 0 Z " fill="#FDFCFB" transform="translate(107,720)"/>
<path d="M0 0 C0.60585938 0.27328125 1.21171875 0.5465625 1.8359375 0.828125 C12.88819444 5.88819444 12.88819444 5.88819444 17 10 C13.7 15.28 10.4 20.56 7 26 C4.76440641 24.88220321 2.53561177 23.74942101 0.3359375 22.5625 C-11.87321217 16.11967696 -22.62314851 14.36408773 -36.03125 17.953125 C-45.89775235 21.4323653 -53.25158171 28.8295152 -58 38 C-62.92985393 48.40965173 -62.67655283 62.81585952 -59.375 73.6875 C-55.28199735 83.94862901 -48.30726345 90.873627 -38.25 95.375 C-24.71503737 99.83025853 -9.75585684 97.7685722 3 92 C4.66749152 91.00137605 6.33437104 90.00172747 8 89 C8.66 89 9.32 89 10 89 C12.64 94.94 15.28 100.88 18 107 C-0.12442364 118.32776478 -18.80444332 122.13170919 -40.0625 117.875 C-56.19376193 113.39409391 -69.22092502 103.48292292 -77.72265625 89.08203125 C-83.19725368 78.68433147 -85.55550338 68.85548036 -85.4375 57.125 C-85.43065186 56.0736084 -85.42380371 55.0222168 -85.41674805 53.93896484 C-85.25187177 45.95203694 -84.2549351 39.36132674 -81 32 C-80.67257812 31.15050781 -80.34515625 30.30101562 -80.0078125 29.42578125 C-74.13019341 15.76138942 -61.17921042 4.97794315 -47.87109375 -0.95703125 C-33.176594 -6.2950332 -14.34618433 -6.49353606 0 0 Z " fill="#015A9C" transform="translate(531,361)"/>
<path d="M0 0 C5.41610182 4.45238264 8.27563753 10.16571567 10.1953125 16.8046875 C10.43582153 19.91793823 10.43582153 19.91793823 10.42236328 23.26904297 C10.42221222 24.52989716 10.42206116 25.79075134 10.42190552 27.08981323 C10.41169467 28.45050213 10.40126272 29.81118938 10.390625 31.171875 C10.38689074 32.57577309 10.38404572 33.9796738 10.38204956 35.38357544 C10.37444554 39.06281847 10.3548252 42.74190139 10.3326416 46.42108154 C10.31211321 50.18174067 10.30303294 53.94242589 10.29296875 57.703125 C10.2715759 65.07039364 10.23642052 72.43749766 10.1953125 79.8046875 C3.5953125 79.8046875 -3.0046875 79.8046875 -9.8046875 79.8046875 C-10.4646875 77.8246875 -11.1246875 75.8446875 -11.8046875 73.8046875 C-12.27777344 74.13082031 -12.75085938 74.45695312 -13.23828125 74.79296875 C-23.59167597 81.63468573 -33.54845784 83.15505581 -45.8046875 81.8046875 C-53.17484652 80.01767634 -59.23914815 75.31092462 -63.6796875 69.2421875 C-66.78536347 62.51322289 -66.9506673 53.69262897 -64.8671875 46.6171875 C-61.8895242 39.84091633 -55.51008611 35.25868218 -48.8671875 32.4296875 C-40.38736579 29.22919042 -31.79024875 28.49610547 -22.8046875 28.6171875 C-21.86496094 28.61783203 -20.92523437 28.61847656 -19.95703125 28.61914062 C-13.08681441 28.66362404 -13.08681441 28.66362404 -10.8046875 29.8046875 C-11.44814351 24.85871967 -12.01166646 20.89225921 -14.9921875 16.8046875 C-21.52785655 12.15710062 -29.04350821 12.00866911 -36.8046875 12.8046875 C-40.925413 13.86102826 -44.83709437 15.28210974 -48.8046875 16.8046875 C-50.80187667 17.47972813 -52.80116974 18.14866841 -54.8046875 18.8046875 C-55.67231064 16.55907468 -56.5238978 14.30942495 -57.3671875 12.0546875 C-57.61404297 11.42046875 -57.86089844 10.78625 -58.11523438 10.1328125 C-59.0720394 7.54539609 -59.81455064 5.28715958 -59.7578125 2.51171875 C-56.86800907 -2.66387182 -47.48541526 -4.44882033 -42.1171875 -6.0078125 C-27.89386206 -9.23619376 -12.42358122 -8.02938851 0 0 Z " fill="#01589C" transform="translate(721.8046875,398.1953125)"/>
<path d="M0 0 C6.93 0 13.86 0 21 0 C21.33 16.83 21.66 33.66 22 51 C24.31 48.69 26.62 46.38 29 44 C31.51171875 42.4765625 31.51171875 42.4765625 33.6875 41.625 C34.41324219 41.32851563 35.13898437 41.03203125 35.88671875 40.7265625 C44.59316709 37.73321797 54.31316926 37.68537892 62.71875 41.62890625 C71.54175467 46.93177378 75.28922262 54.26139578 78 64 C78.60478479 68.96514099 78.58829347 73.83624021 78.48828125 78.83203125 C78.47892449 80.20349317 78.47182198 81.57497211 78.46684265 82.94645691 C78.44799675 86.50929118 78.39910023 90.07106207 78.34332275 93.63348389 C78.291637 97.28741073 78.26922483 100.94151399 78.24414062 104.59570312 C78.19095072 111.73093857 78.10320834 118.86528676 78 126 C71.07 126 64.14 126 57 126 C56.99589111 124.37578125 56.99178223 122.7515625 56.98754883 121.078125 C56.96572038 115.03206982 56.91139024 108.98666195 56.84741211 102.94091797 C56.82426482 100.32802551 56.80984413 97.71504018 56.80444336 95.10205078 C56.79513064 91.33828064 56.75408396 87.57596477 56.70703125 83.8125 C56.7109639 82.65073242 56.71489655 81.48896484 56.71894836 80.29199219 C56.59587431 73.3965638 55.81858433 68.19605805 51 63 C45.86872634 59.84229313 40.88668045 59.10569629 35 60 C29.73093597 61.6492255 25.58081651 63.71368181 22 68 C21.38699573 70.7340261 21.38699573 70.7340261 21.45410156 73.77832031 C21.42452362 75.51967255 21.42452362 75.51967255 21.39434814 77.29620361 C21.39311951 78.54423767 21.39189087 79.79227173 21.390625 81.078125 C21.37408875 82.35983582 21.35755249 83.64154663 21.34051514 84.96209717 C21.29687446 88.36182546 21.27685035 91.7612959 21.26177979 95.16125488 C21.24219642 98.63369981 21.20022797 102.10586676 21.16015625 105.578125 C21.08489014 112.38533937 21.03664719 119.19246928 21 126 C14.07 126 7.14 126 0 126 C0 84.42 0 42.84 0 0 Z " fill="#005B9E" transform="translate(562,352)"/>
<path d="M0 0 C9.48384231 6.90299342 12.87474573 14.011919 15.5078125 25.421875 C15.5078125 32.021875 15.5078125 38.621875 15.5078125 45.421875 C-3.9621875 45.421875 -23.4321875 45.421875 -43.4921875 45.421875 C-39.76027694 54.75165141 -37.49127522 59.43401735 -28.6796875 63.296875 C-19.5080383 66.23673185 -11.15070359 64.08368025 -2.4921875 60.421875 C-1.17154297 59.58076172 -1.17154297 59.58076172 0.17578125 58.72265625 C0.94535156 58.29339844 1.71492187 57.86414063 2.5078125 57.421875 C6.54222361 58.7666787 7.63448497 61.37497403 9.6953125 64.859375 C10.06333984 65.45814453 10.43136719 66.05691406 10.81054688 66.67382812 C13.5078125 71.14258175 13.5078125 71.14258175 13.5078125 73.421875 C0.28179978 83.4088642 -14.99469952 85.14469255 -30.94921875 82.9453125 C-41.63272433 80.66872466 -50.69155213 74.97946739 -57.4921875 66.421875 C-65.32146081 53.73167882 -66.45666912 39.15955292 -63.8046875 24.6640625 C-60.4240102 13.64868895 -52.74285455 4.39107485 -42.609375 -1.15625 C-28.93345576 -7.50187653 -13.08126135 -8.28343195 0 0 Z " fill="#01579B" transform="translate(679.4921875,548.578125)"/>
<path d="M0 0 C-1.54385129 4.14032846 -3.51028938 7.93553053 -5.625 11.8125 C-5.94984375 12.40998047 -6.2746875 13.00746094 -6.609375 13.62304688 C-7.40379151 15.08337135 -8.20155376 16.54187491 -9 18 C-11.83005665 16.8851292 -14.57334439 15.72379522 -17.31640625 14.40234375 C-21.29875243 12.88626498 -24.73526937 12.4990815 -28.9375 12.5625 C-29.64044189 12.57007324 -30.34338379 12.57764648 -31.06762695 12.58544922 C-37.5132063 12.79035567 -41.83771665 14.0174847 -46.51171875 18.42578125 C-52.40321309 24.95875634 -52.52047333 31.77213526 -52.3125 40.1015625 C-51.77887464 46.7585389 -49.8383008 50.11991963 -45.25 54.8125 C-38.30888359 59.48440528 -32.02319043 60.92348746 -23.70703125 59.6484375 C-19.04223331 58.72641714 -15.21274405 57.26049681 -11 55 C-10.34 55 -9.68 55 -9 55 C-7.63354299 57.59836136 -6.28169331 60.20265556 -4.9375 62.8125 C-4.54755859 63.55048828 -4.15761719 64.28847656 -3.75585938 65.04882812 C-3.39169922 65.76103516 -3.02753906 66.47324219 -2.65234375 67.20703125 C-2.31195068 67.8616333 -1.97155762 68.51623535 -1.62084961 69.19067383 C-1 71 -1 71 -2 74 C-13.73567167 81.84706618 -28.83616251 82.92444542 -42.4453125 80.34765625 C-55.26358332 76.44862609 -65.49064906 68.89993682 -71.8125 57.0625 C-76.84697416 46.11583085 -78.27660931 32.62101757 -74.375 21.0625 C-68.93298773 8.421159 -60.20934311 -0.76633992 -47.4453125 -6.125 C-31.76771122 -11.7348765 -14.13109751 -7.75824961 0 0 Z " fill="#02589B" transform="translate(782,551)"/>
<path d="M0 0 C1.32 0.66 2.64 1.32 4 2 C3.39463371 7.82451296 1.81349579 12.93475906 -0.16015625 18.43359375 C-0.46948593 19.31153091 -0.77881561 20.18946808 -1.09751892 21.0940094 C-2.07976341 23.87736871 -3.07097763 26.65743401 -4.0625 29.4375 C-4.73301836 31.33247134 -5.40294651 33.22765162 -6.07226562 35.12304688 C-7.70693523 39.75157233 -9.35371363 44.37552848 -11 49 C2.365 49.495 2.365 49.495 16 50 C16 54.97753476 14.938801 55.57314174 11.5625 59.0625 C10.63052907 60.04601835 9.7008896 61.03175052 8.7734375 62.01953125 C8.30389648 62.51791504 7.83435547 63.01629883 7.35058594 63.52978516 C5.3642551 65.69205636 3.52712249 67.96243969 1.6875 70.25 C-1.91184973 74.70633776 -5.61333012 79.0561067 -9.375 83.375 C-13.47016775 88.07732088 -17.54293115 92.79534255 -21.5625 97.5625 C-25.50917984 102.2391596 -29.46418697 106.90842965 -33.4375 111.5625 C-33.93386963 112.14652588 -34.43023926 112.73055176 -34.94165039 113.33227539 C-37.51851748 116.3457355 -40.14914516 119.24349969 -43 122 C-44.32 121.34 -45.64 120.68 -47 120 C-46.42325278 114.16086102 -44.77160671 109.22526497 -42.62109375 103.78515625 C-42.28956802 102.92941513 -41.9580423 102.07367401 -41.61647034 101.19200134 C-40.56374908 98.47940862 -39.50080649 95.77095853 -38.4375 93.0625 C-37.71872044 91.21575955 -37.00061431 89.36875683 -36.28320312 87.52148438 C-34.52991384 83.01125071 -32.76745109 78.5047018 -31 74 C-31.65597168 73.98018066 -32.31194336 73.96036133 -32.98779297 73.93994141 C-35.95061069 73.84487493 -38.91270532 73.73512248 -41.875 73.625 C-42.90753906 73.5940625 -43.94007813 73.563125 -45.00390625 73.53125 C-45.99003906 73.49257813 -46.97617188 73.45390625 -47.9921875 73.4140625 C-49.35899658 73.36693115 -49.35899658 73.36693115 -50.75341797 73.31884766 C-53 73 -53 73 -55 71 C-54.81120847 66.80882811 -51.78123349 63.85890089 -49.25 60.75 C-48.76337891 60.1415625 -48.27675781 59.533125 -47.77539062 58.90625 C-46.1915334 56.93094517 -44.59723306 54.96450102 -43 53 C-42.46697266 52.34322266 -41.93394531 51.68644531 -41.38476562 51.00976562 C-39.20476154 48.32486312 -37.02325164 45.64121942 -34.83666992 42.96166992 C-31.36243413 38.69930443 -27.94267506 34.39970506 -24.5625 30.0625 C-16.60209091 19.85851479 -8.29046776 9.93614114 0 0 Z " fill="#015A9D" transform="translate(260,333)"/>
<path d="M0 0 C6.93 0 13.86 0 21 0 C21 41.25 21 82.5 21 125 C14.07 125 7.14 125 0 125 C0 83.75 0 42.5 0 0 Z " fill="#00589C" transform="translate(578,504)"/>
<path d="M0 0 C19.47 0 38.94 0 59 0 C59 32.1882 59 32.1882 49.49609375 41.859375 C42.0138205 48.2760976 33.5805436 48.8705865 24.06640625 48.4375 C14.96370445 47.68295875 9.43986601 43.07558422 3.59375 36.37890625 C-3.60201127 25.63817435 0 12.44652922 0 0 Z " fill="#FDFCFA" transform="translate(211,579)"/>
<path d="M0 0 C0.99 -0.00386719 0.99 -0.00386719 2 -0.0078125 C4.10126013 0.13172431 5.97628927 0.55583136 8 1.125 C8.12109311 8.20221931 7.85373239 15.09695301 7 22.125 C5.94941406 22.15078125 4.89882813 22.1765625 3.81640625 22.203125 C-7.62267907 22.59527893 -7.62267907 22.59527893 -18 27.125 C-18.84949219 27.54966553 -19.69898438 27.97433105 -20.57421875 28.41186523 C-24.57057604 32.88162354 -23.7259344 37.97695403 -23.70703125 43.765625 C-23.72215256 45.00294373 -23.73727386 46.24026245 -23.75285339 47.51507568 C-23.78854628 50.79664611 -23.8028919 54.07739769 -23.80688477 57.35913086 C-23.8162214 60.71098235 -23.85405718 64.06237659 -23.88867188 67.4140625 C-23.95164801 73.98444272 -23.98388616 80.55434445 -24 87.125 C-30.93 87.125 -37.86 87.125 -45 87.125 C-45 59.075 -45 31.025 -45 2.125 C-38.07 2.125 -31.14 2.125 -24 2.125 C-23.67 6.085 -23.34 10.045 -23 14.125 C-21.7934375 12.2996875 -21.7934375 12.2996875 -20.5625 10.4375 C-15.59514799 3.78290016 -8.33253551 -0.03254897 0 0 Z " fill="#00579B" transform="translate(797,390.875)"/>
<path d="M0 0 C3.95495808 2.77601044 6.90574119 4.92699481 7.93261719 9.80834961 C8.04061017 16.818894 8.04061017 16.818894 8.015625 19.44702148 C8.00394527 21.51262985 8.05618102 23.57005095 8.11328125 25.63476562 C8.11328125 35.29531211 8.11328125 35.29531211 5.77661133 38.79394531 C-0.28511161 44.13078284 -7.31700424 46.14854821 -15.29296875 45.8671875 C-22.03070705 45.08397907 -26.93628957 42.39183543 -31.74609375 37.58203125 C-36.9271562 30.21598399 -37.34581885 23.37422756 -36.74609375 14.58203125 C-35.53620824 7.99981007 -31.9244732 3.66851858 -26.74609375 -0.41796875 C-18.12685785 -5.65711214 -8.59818996 -4.5827916 0 0 Z " fill="#FCFBFA" transform="translate(868.74609375,413.41796875)"/>
<path d="M0 0 C1.18315708 11.06909178 1.18315708 11.06909178 0 16 C-2.82547887 19.32147023 -5.92414283 20.61145541 -10 22 C-11.794375 22.680625 -11.794375 22.680625 -13.625 23.375 C-19.20976402 24.40921556 -23.71043547 24.9715755 -28.875 22.25 C-31.92085798 20.05698226 -32.73953747 19.34695634 -34 16 C-34.27078678 12.84646224 -33.90544255 10.03079272 -33 7 C-25.44671213 -1.90900621 -10.70957225 -3.20769797 0 0 Z " fill="#F7F9F9" transform="translate(711,441)"/>
<path d="M0 0 C9.53571429 0 9.53571429 0 15 3 C19.28536391 7.56604271 18.51464639 12.5608888 18.5 18.5 C18.52835937 19.54542969 18.55671875 20.59085937 18.5859375 21.66796875 C18.58980469 23.17810547 18.58980469 23.17810547 18.59375 24.71875 C18.60083984 25.63591797 18.60792969 26.55308594 18.61523438 27.49804688 C18 30 18 30 13 34 C8.71 34 4.42 34 0 34 C0 22.78 0 11.56 0 0 Z " fill="#F9FAFA" transform="translate(355,350)"/>
<path d="M0 0 C4.57537759 2.6105481 7.76889007 6.36287352 9.625 11.3125 C9.625 12.9625 9.625 14.6125 9.625 16.3125 C-3.245 16.3125 -16.115 16.3125 -29.375 16.3125 C-25.17939526 3.72568579 -25.17939526 3.72568579 -18.75 0 C-12.53029469 -2.83239368 -6.21970531 -2.83239368 0 0 Z " fill="#FBFBFA" transform="translate(665.375,561.6875)"/>
<path d="M0 0 C6.93 0 13.86 0 21 0 C21.33 16.83 21.66 33.66 22 51 C22.99 50.505 22.99 50.505 24 50 C23.67 50.99 23.34 51.98 23 53 C21.515 53.495 21.515 53.495 20 54 C18.82252962 51.64505925 18.87321365 50.23862762 18.87060547 47.61376953 C18.86745331 46.70587677 18.86430115 45.79798401 18.86105347 44.86257935 C18.8630777 43.87925629 18.86510193 42.89593323 18.8671875 41.8828125 C18.86575241 40.36976028 18.86575241 40.36976028 18.86428833 38.82614136 C18.86360692 36.68926939 18.86545847 34.55239535 18.86962891 32.41552734 C18.8749666 29.14546034 18.86968831 25.87553139 18.86328125 22.60546875 C18.86394226 20.5312497 18.86522388 18.45703073 18.8671875 16.3828125 C18.86516327 15.4035379 18.86313904 14.42426331 18.86105347 13.41531372 C18.86420563 12.50111664 18.86735779 11.58691956 18.87060547 10.64501953 C18.87140106 9.84274933 18.87219666 9.04047913 18.87301636 8.21389771 C19 6 19 6 20 2 C14.06 2 8.12 2 2 2 C2 42.26 2 82.52 2 124 C7.28 124 12.56 124 18 124 C18.66 124.33 19.32 124.66 20 125 C19.99111755 124.28225403 19.98223511 123.56450806 19.9730835 122.82501221 C19.8928951 116.05692406 19.83201408 109.28890703 19.79275131 102.52046585 C19.77188692 99.0407813 19.74359179 95.56148967 19.69824219 92.08203125 C19.64641773 88.08069107 19.62704547 84.07976281 19.609375 80.078125 C19.58872986 78.83009094 19.56808472 77.58205688 19.54681396 76.29620361 C19.54651184 75.13530212 19.54620972 73.97440063 19.54589844 72.77832031 C19.53701599 71.75683899 19.52813354 70.73535767 19.51898193 69.68292236 C20.1210271 66.32496028 21.42044441 65.14418621 24 63 C24.66 63.33 25.32 63.66 26 64 C25.35125916 64.54082214 24.70251831 65.08164429 24.03411865 65.63885498 C21.50973888 68.56908067 21.48733676 69.9562729 21.45410156 73.77832031 C21.42452362 75.51967255 21.42452362 75.51967255 21.39434814 77.29620361 C21.39311951 78.54423767 21.39189087 79.79227173 21.390625 81.078125 C21.37408875 82.35983582 21.35755249 83.64154663 21.34051514 84.96209717 C21.29687446 88.36182546 21.27685035 91.7612959 21.26177979 95.16125488 C21.24219642 98.63369981 21.20022797 102.10586676 21.16015625 105.578125 C21.08489014 112.38533937 21.03664719 119.19246928 21 126 C14.07 126 7.14 126 0 126 C0 84.42 0 42.84 0 0 Z " fill="#023387" transform="translate(562,352)"/>
<path d="M0 0 C1.26747024 2.53494048 1.11456889 4.26614603 1.10006714 7.10420227 C1.09710632 8.18515167 1.09414551 9.26610107 1.09109497 10.37980652 C1.08278656 11.57100601 1.07447815 12.76220551 1.06591797 13.98950195 C1.06124512 15.23997314 1.05657227 16.49044434 1.05175781 17.77880859 C1.04123242 20.50220604 1.02895185 23.22553662 1.01403427 25.94890785 C0.9909984 30.25606094 0.97767516 34.5632093 0.96633911 38.8704071 C0.93288343 51.1196381 0.8913114 63.36880117 0.82861328 75.61791992 C0.79408009 82.38048625 0.77027701 89.14300188 0.75840485 95.90564698 C0.75163464 99.48459917 0.73918167 103.06333654 0.71337509 106.64220619 C0.68458164 110.6356384 0.67900818 114.62878015 0.67529297 118.62231445 C0.6629361 119.80744125 0.65057922 120.99256805 0.6378479 122.21360779 C0.64052673 123.30301666 0.64320557 124.39242554 0.64596558 125.5148468 C0.63986928 126.93097244 0.63986928 126.93097244 0.63364983 128.37570667 C1.07872904 131.56396342 2.11065981 133.41090383 4 136 C7.16601328 138.11067552 7.92296496 138.25151855 11.54110718 138.26069641 C12.47197647 138.26778122 13.40284576 138.27486603 14.36192322 138.28216553 C15.38121414 138.27968811 16.40050507 138.27721069 17.45068359 138.2746582 C18.52573654 138.27976913 19.60078949 138.28488007 20.7084198 138.29014587 C24.27181525 138.30407661 27.83501801 138.30308234 31.3984375 138.30078125 C33.87081983 138.30466651 36.34320149 138.30900082 38.81558228 138.31376648 C44.00240236 138.32123637 49.18915439 138.320932 54.37597656 138.31567383 C61.02644603 138.30988082 67.67653246 138.32680246 74.32697105 138.3500185 C79.4347395 138.36474359 84.54244068 138.36562915 89.65022659 138.36250877 C92.10225603 138.36302269 94.55428916 138.36827349 97.00629807 138.37832069 C100.43455907 138.39064253 103.86227521 138.38391829 107.29052734 138.37231445 C108.81339104 138.38378006 108.81339104 138.38378006 110.36701965 138.39547729 C115.39406615 138.35782546 118.91258043 138.29718421 123 135 C122.67 136.65 122.34 138.3 122 140 C119.06060164 140.84294319 116.43728095 141.13085111 113.3833313 141.14717102 C112.46094666 141.15432632 111.53856201 141.16148163 110.58822632 141.16885376 C109.58345245 141.17154266 108.57867859 141.17423157 107.54345703 141.17700195 C105.94769836 141.18685875 105.94769836 141.18685875 104.31970215 141.19691467 C100.79907155 141.21662673 97.27848351 141.22830407 93.7578125 141.23828125 C92.55538784 141.24235678 91.35296318 141.2464323 90.11410141 141.25063133 C83.75298993 141.27148053 77.39189997 141.28578873 71.03076172 141.29516602 C64.45775449 141.30624366 57.88508455 141.34066289 51.31219673 141.38033772 C46.25930139 141.40646188 41.20648706 141.41485401 36.15353012 141.41844749 C33.73022044 141.42332224 31.30691459 141.43496134 28.88367081 141.45348549 C25.49395073 141.47779248 22.1051123 141.4769272 18.71533203 141.4699707 C17.21424393 141.48918579 17.21424393 141.48918579 15.68283081 141.50878906 C9.97222665 141.46606023 6.4133531 141.0020168 2 137 C-0.59564526 133.35568459 -1.37429647 130.88651716 -1.36749268 126.43218994 C-1.37306183 125.3245076 -1.37863098 124.21682526 -1.3843689 123.07557678 C-1.37515411 121.87017746 -1.36593933 120.66477814 -1.35644531 119.42285156 C-1.35848969 118.14600998 -1.36053406 116.8691684 -1.36264038 115.55363464 C-1.36776411 112.06005895 -1.35426206 108.56677897 -1.33711338 105.07325077 C-1.32206136 101.41820568 -1.32325112 97.76316416 -1.32244873 94.10809326 C-1.31875954 87.97484292 -1.3038059 81.84170473 -1.28125 75.70849609 C-1.25232404 67.82695236 -1.24202151 59.94549867 -1.2375679 52.06390762 C-1.23359411 45.29394264 -1.22109545 38.52399735 -1.20722103 31.75404644 C-1.20311702 29.57388796 -1.20019408 27.39373018 -1.19742584 25.21356964 C-1.19164033 21.16220067 -1.17697311 17.11091242 -1.16113281 13.05957031 C-1.16001495 11.84607407 -1.15889709 10.63257782 -1.15774536 9.38230896 C-1.15203522 8.28590591 -1.14632507 7.18950287 -1.14044189 6.05987549 C-1.13746723 5.10125233 -1.13449257 4.14262917 -1.13142776 3.15495682 C-1 1 -1 1 0 0 Z " fill="#0B3287" transform="translate(177,326)"/>
<path d="M0 0 C0.99 0.495 0.99 0.495 2 1 C2 10.24 2 19.48 2 29 C19.49 29 36.98 29 55 29 C55 35.27 55 41.54 55 48 C54.34 48 53.68 48 53 48 C53 42.39 53 36.78 53 31 C35.51 31 18.02 31 0 31 C0 20.77 0 10.54 0 0 Z " fill="#064392" transform="translate(506,580)"/>
<path d="M0 0 C1.67739258 0.00966797 1.67739258 0.00966797 3.38867188 0.01953125 C5.13954102 0.04466797 5.13954102 0.04466797 6.92578125 0.0703125 C8.69405273 0.08384766 8.69405273 0.08384766 10.49804688 0.09765625 C13.41166151 0.12124827 16.32487017 0.1541671 19.23828125 0.1953125 C19.23828125 0.8553125 19.23828125 1.5153125 19.23828125 2.1953125 C18.49666748 2.20989502 17.75505371 2.22447754 16.9909668 2.23950195 C13.63537494 2.31390707 10.28078631 2.41059256 6.92578125 2.5078125 C5.75853516 2.53037109 4.59128906 2.55292969 3.38867188 2.57617188 C2.27041016 2.61162109 1.15214844 2.64707031 0 2.68359375 C-1.54747925 2.72286987 -1.54747925 2.72286987 -3.1262207 2.76293945 C-5.71989413 3.03362582 -5.71989413 3.03362582 -7.59472656 4.2277832 C-9.45520854 7.36452467 -9.20907463 10.64206256 -9.1953125 14.1875 C-9.20055435 14.97045441 -9.2057962 15.75340881 -9.2111969 16.56008911 C-9.21761768 18.21599137 -9.21627932 19.87193923 -9.20776367 21.52783203 C-9.19927175 24.05454408 -9.22798126 26.57898118 -9.25976562 29.10546875 C-9.26137828 30.71614516 -9.26079887 32.32682555 -9.2578125 33.9375 C-9.26904648 34.68973846 -9.28028046 35.44197693 -9.29185486 36.2170105 C-9.22646589 41.17077742 -8.30435342 43.7260642 -4.76171875 47.1953125 C-2.64511448 48.50696507 -2.64511448 48.50696507 -0.76171875 49.1953125 C-1.09171875 49.8553125 -1.42171875 50.5153125 -1.76171875 51.1953125 C-6.72829072 48.10500105 -9.89054706 45.80882757 -11.76171875 40.1953125 C-11.88192516 37.74055189 -11.94973382 35.31495406 -11.96484375 32.859375 C-11.97054382 32.14300873 -11.9762439 31.42664246 -11.9821167 30.68856812 C-11.99155411 29.17390413 -11.99809568 27.65921973 -12.00195312 26.14453125 C-12.01165464 23.83557047 -12.0426865 21.52750181 -12.07421875 19.21875 C-12.0807498 17.74479693 -12.08599987 16.27083752 -12.08984375 14.796875 C-12.10219055 14.11025787 -12.11453735 13.42364075 -12.1272583 12.71621704 C-12.1071685 8.36084293 -11.43919951 5.64843136 -8.76171875 2.1953125 C-5.31537993 -0.10224672 -4.05103484 -0.04112726 0 0 Z " fill="#04388D" transform="translate(102.76171875,703.8046875)"/>
<path d="M0 0 C0.12109311 7.07721931 -0.14626761 13.97195301 -1 21 C-2.08539062 21.06058594 -3.17078125 21.12117188 -4.2890625 21.18359375 C-5.73438486 21.26806064 -7.17969682 21.35270551 -8.625 21.4375 C-9.33785156 21.47681641 -10.05070313 21.51613281 -10.78515625 21.55664062 C-14.91803682 21.80309681 -18.92269024 22.23470053 -23 23 C-19.65227918 19.65227918 -15.06871666 19.10231674 -10.47265625 18.875 C-8.31121831 18.875 -6.15942371 18.91002401 -4 19 C-2.46733418 15.93466836 -2.89723529 12.73245728 -2.9375 9.375 C-2.94201172 8.66859375 -2.94652344 7.9621875 -2.95117188 7.234375 C-2.96296125 5.48954725 -2.98089676 3.744763 -3 2 C-3.93972656 2.03480469 -3.93972656 2.03480469 -4.8984375 2.0703125 C-6.12433594 2.09738281 -6.12433594 2.09738281 -7.375 2.125 C-8.18710937 2.14820313 -8.99921875 2.17140625 -9.8359375 2.1953125 C-12 2 -12 2 -14 0 C-9.77971101 -2.1101445 -4.42006486 -1.24871787 0 0 Z " fill="#083E8D" transform="translate(805,392)"/>
<path d="M0 0 C0.66 0 1.32 0 2 0 C2 6.27 2 12.54 2 19 C-15.49 18.67 -32.98 18.34 -51 18 C-51 17.67 -51 17.34 -51 17 C-34.17 17 -17.34 17 0 17 C0 11.39 0 5.78 0 0 Z " fill="#04368A" transform="translate(559,513)"/>
<path d="M0 0 C1.07878418 0.01047363 2.15756836 0.02094727 3.26904297 0.03173828 C5.01894531 0.04140625 5.01894531 0.04140625 6.80419922 0.05126953 C8.02751953 0.06802734 9.25083984 0.08478516 10.51123047 0.10205078 C11.74228516 0.11107422 12.97333984 0.12009766 14.24169922 0.12939453 C17.29006862 0.1530253 20.33805429 0.18597024 23.38623047 0.22705078 C23.38623047 1.54705078 23.38623047 2.86705078 23.38623047 4.22705078 C20.88623047 6.47705078 20.88623047 6.47705078 18.38623047 8.22705078 C20.26123047 4.35205078 20.26123047 4.35205078 21.38623047 3.22705078 C8.51623047 2.73205078 8.51623047 2.73205078 -4.61376953 2.22705078 C-2.61376953 0.22705078 -2.61376953 0.22705078 0 0 Z " fill="#033289" transform="translate(252.61376953125,382.77294921875)"/>
<path d="M0 0 C1.65 0.99 3.3 1.98 5 3 C4.07960938 3.06574219 4.07960938 3.06574219 3.140625 3.1328125 C0.71850796 3.83538215 0.71850796 3.83538215 -0.265625 6.6171875 C-0.75289062 8.22980469 -0.75289062 8.22980469 -1.25 9.875 C-1.58515625 10.94492187 -1.9203125 12.01484375 -2.265625 13.1171875 C-3.12342932 15.98871232 -3.12342932 15.98871232 -3 19 C3.435 21.97 3.435 21.97 10 25 C7 26 7 26 4.1171875 24.85546875 C3.04726563 24.30503906 1.97734375 23.75460937 0.875 23.1875 C-0.20007813 22.64480469 -1.27515625 22.10210937 -2.3828125 21.54296875 C-5 20 -5 20 -6 18 C-5.56274414 16.12060547 -5.56274414 16.12060547 -4.78515625 13.8671875 C-4.51123047 13.06152344 -4.23730469 12.25585938 -3.95507812 11.42578125 C-3.51325195 10.16314453 -3.51325195 10.16314453 -3.0625 8.875 C-2.77181641 8.02550781 -2.48113281 7.17601562 -2.18164062 6.30078125 C-1.46106999 4.19813251 -0.73361685 2.09812523 0 0 Z " fill="#07237A" transform="translate(822,487)"/>
<path d="M0 0 C6.87138076 0.07091208 12.34668743 1.53348568 18.5625 4.375 C15.5625 5.375 15.5625 5.375 13.625 4.8125 C10.95892715 4.2469694 9.83974925 4.99238438 7.5625 6.375 C7.5625 5.385 7.5625 4.395 7.5625 3.375 C2.2825 3.045 -2.9975 2.715 -8.4375 2.375 C-5.65540857 -0.40709143 -3.88844645 0.04258977 0 0 Z " fill="#104795" transform="translate(849.4375,390.625)"/>
<path d="M0 0 C0.66 0.33 1.32 0.66 2 1 C1.16855469 1.51949219 0.33710938 2.03898437 -0.51953125 2.57421875 C-1.60621094 3.27160156 -2.69289063 3.96898437 -3.8125 4.6875 C-5.43091797 5.71423828 -5.43091797 5.71423828 -7.08203125 6.76171875 C-10.02241411 9.01719315 -11.27654959 10.78112492 -13 14 C-15.69366015 16.42429413 -17.55448619 17.8514954 -21 19 C-17.29636189 10.47391644 -8.36789984 3.63821732 0 0 Z " fill="#043586" transform="translate(479,362)"/>
<path d="M0 0 C0.33 1.32 0.66 2.64 1 4 C4.71599191 4.20086443 5.77208445 4.1519437 9 2 C7.44499019 5.81684226 4.96404505 8.19195732 2 11 C0.68 10.34 -0.64 9.68 -2 9 C-1.125 2.25 -1.125 2.25 0 0 Z " fill="#053D8B" transform="translate(215,444)"/>
<path d="M0 0 C3.08325358 -0.0582253 6.16636505 -0.09367134 9.25 -0.125 C10.55904297 -0.15013672 10.55904297 -0.15013672 11.89453125 -0.17578125 C12.73886719 -0.18222656 13.58320312 -0.18867188 14.453125 -0.1953125 C15.22817383 -0.20578613 16.00322266 -0.21625977 16.80175781 -0.22705078 C19.25883539 0.02673444 20.87311542 0.77555848 23 2 C23 2.66 23 3.32 23 4 C23.763125 4.268125 24.52625 4.53625 25.3125 4.8125 C27.87380884 5.94424112 29.19692938 6.91223401 31 9 C28.53604137 8.01792396 26.07627033 7.03221981 23.6328125 6 C15.83265637 2.88965737 8.306116 1.85190933 0 1 C0 0.67 0 0.34 0 0 Z " fill="#073285" transform="translate(503,375)"/>
<path d="M0 0 C0.33 0 0.66 0 1 0 C1.04898438 0.845625 1.09796875 1.69125 1.1484375 2.5625 C1.56924014 8.94709185 2.19350763 14.85792595 4 21 C3.34 20.67 2.68 20.34 2 20 C2 19.34 2 18.68 2 18 C1.34 18 0.68 18 0 18 C-1.17814715 12.10926427 -1.93753594 5.81260782 0 0 Z " fill="#012382" transform="translate(831,427)"/>
<path d="M0 0 C2.6855594 2.6855594 3.06049974 5.37621328 4 9 C5.32 9.33 6.64 9.66 8 10 C8.12375 10.7425 8.2475 11.485 8.375 12.25 C8.95486701 14.80141485 9.73708739 16.7267573 11 19 C6.89695923 16.09921308 4.85366785 13.4545477 2.6875 8.9375 C2.17574219 7.89464844 1.66398438 6.85179687 1.13671875 5.77734375 C0 3 0 3 0 0 Z " fill="#093284" transform="translate(197,611)"/>
<path d="M0 0 C2.91517292 1.07401108 4.77810176 1.77810176 7 4 C4.03 8.62 1.06 13.24 -2 18 C-2.33 17.34 -2.66 16.68 -3 16 C-1.78515625 13.3984375 -1.78515625 13.3984375 -0.0625 10.375 C0.50339844 9.37210937 1.06929687 8.36921875 1.65234375 7.3359375 C2.09707031 6.56507813 2.54179688 5.79421875 3 5 C2.2575 4.0409375 2.2575 4.0409375 1.5 3.0625 C0 1 0 1 0 0 Z " fill="#072E81" transform="translate(541,367)"/>
<path d="M0 0 C5.75 1.875 5.75 1.875 8 3 C6.43358249 7.30764815 4.31663844 11.06171464 2 15 C1 13 1 13 1.9375 9.875 C2.288125 8.92625 2.63875 7.9775 3 7 C3.66 7 4.32 7 5 7 C4.21869929 4.50447516 4.21869929 4.50447516 3 2 C2.01 1.67 1.02 1.34 0 1 C0 0.67 0 0.34 0 0 Z " fill="#073183" transform="translate(774,548)"/>
<path d="M0 0 C6.62842427 0.28819236 11.78452788 2.92868996 17 7 C18.29296875 9.19921875 18.29296875 9.19921875 19 11 C18.443125 10.54625 17.88625 10.0925 17.3125 9.625 C14.93798958 7.95642511 12.71323292 6.99961213 10 6 C9.34 5.67 8.68 5.34 8 5 C8 4.34 8 3.68 8 3 C5.36 2.34 2.72 1.68 0 1 C0 0.67 0 0.34 0 0 Z " fill="#062B82" transform="translate(707,393)"/>
<path d="M0 0 C0.66 1.32 1.32 2.64 2 4 C1.01 4.33 0.02 4.66 -1 5 C-2.04449911 8.13349732 -1.93423645 8.98968256 -1 12 C-2.32 12 -3.64 12 -5 12 C-5.33 12.99 -5.66 13.98 -6 15 C-5.61471495 8.83543922 -3.52913975 5.01372252 0 0 Z " fill="#07408D" transform="translate(130,277)"/>
<path d="M0 0 C6.71068533 0.29176893 11.59762716 3.09828628 17 7 C17.33 7.66 17.66 8.32 18 9 C15.36 8.34 12.72 7.68 10 7 C10 6.34 10 5.68 10 5 C5.05 3.02 5.05 3.02 0 1 C0 0.67 0 0.34 0 0 Z " fill="#073084" transform="translate(322,261)"/>
<path d="M0 0 C0.33 0.66 0.66 1.32 1 2 C0.67 2.99 0.34 3.98 0 5 C-3.29701062 6.34807677 -6.7354961 6.10070113 -10.25 6.0625 C-11.32765625 6.05347656 -12.4053125 6.04445313 -13.515625 6.03515625 C-14.33546875 6.02355469 -15.1553125 6.01195312 -16 6 C-16 5.67 -16 5.34 -16 5 C-15.02160156 4.96132813 -15.02160156 4.96132813 -14.0234375 4.921875 C-8.11925307 4.53871259 -4.60333137 3.75534928 0 0 Z " fill="#032F84" transform="translate(299,461)"/>
<path d="M0 0 C0.33 0 0.66 0 1 0 C1.28125 2.29296875 1.28125 2.29296875 1 5 C-0.96875 6.80078125 -0.96875 6.80078125 -3.5 8.3125 C-4.3353125 8.82425781 -5.170625 9.33601563 -6.03125 9.86328125 C-6.6809375 10.23839844 -7.330625 10.61351562 -8 11 C-6.64199529 8.03469503 -5.07571737 5.70868729 -2.9375 3.25 C-2.41027344 2.63640625 -1.88304687 2.0228125 -1.33984375 1.390625 C-0.89769531 0.93171875 -0.45554688 0.4728125 0 0 Z " fill="#073C8B" transform="translate(243,354)"/>
<path d="M0 0 C5.28 1.32 10.56 2.64 16 4 C16 4.33 16 4.66 16 5 C9.25 6.125 9.25 6.125 7 5 C7 4.34 7 3.68 7 3 C5.02 3 3.04 3 1 3 C0.67 2.01 0.34 1.02 0 0 Z " fill="#053286" transform="translate(262,668)"/>
<path d="M0 0 C4.47238653 1.41807378 8.71146306 3.11304374 13 5 C11.4375 5.6875 11.4375 5.6875 9 6 C6.64018187 5.06421005 4.30368736 4.06652192 2 3 C1.34 3 0.68 3 0 3 C0 2.01 0 1.02 0 0 Z " fill="#053083" transform="translate(484,453)"/>
<path d="M0 0 C2.97 0.99 5.94 1.98 9 3 C6 4 6 4 4.0625 3.4375 C1.39642715 2.8719694 0.27724925 3.61738438 -2 5 C-1.125 1.125 -1.125 1.125 0 0 Z " fill="#053F8D" transform="translate(859,392)"/>
<path d="M0 0 C0 0.33 0 0.66 0 1 C-1.093125 1.12375 -2.18625 1.2475 -3.3125 1.375 C-7.07381802 1.75464801 -7.07381802 1.75464801 -10 4 C-10 3.01 -10 2.02 -10 1 C-6.1496895 -1.56687367 -4.41430237 -0.83288724 0 0 Z " fill="#0E3E8F" transform="translate(104,705)"/>
<path d="M0 0 C0.99 0.33 1.98 0.66 3 1 C3.73046875 2.84765625 3.73046875 2.84765625 4.1875 5.0625 C4.34605469 5.79597656 4.50460937 6.52945312 4.66796875 7.28515625 C4.83232422 8.13400391 4.83232422 8.13400391 5 9 C4.34 8.67 3.68 8.34 3 8 C3 7.34 3 6.68 3 6 C2.34 6 1.68 6 1 6 C0.67 4.02 0.34 2.04 0 0 Z " fill="#033F8B" transform="translate(830,439)"/>
<path d="M0 0 C0.33 0.66 0.66 1.32 1 2 C-1.31944788 5.47917182 -3.26369964 6.29429766 -7 8 C-5.50902342 4.2047869 -3.24299151 2.38957269 0 0 Z " fill="#024590" transform="translate(230,372)"/>
<path d="M0 0 C2.31 0.33 4.62 0.66 7 1 C7.33 2.98 7.66 4.96 8 7 C7.01 6.34 6.02 5.68 5 5 C5 4.34 5 3.68 5 3 C2.525 2.01 2.525 2.01 0 1 C0 0.67 0 0.34 0 0 Z " fill="#10408D" transform="translate(365,350)"/>
<path d="M0 0 C0.99 0 1.98 0 3 0 C1.73058503 3.91402949 0.48832306 5.79072873 -3 8 C-2.5359375 7.13375 -2.5359375 7.13375 -2.0625 6.25 C-1.07416636 4.15705816 -0.4831387 2.25464725 0 0 Z " fill="#063487" transform="translate(275,622)"/>
<path d="M0 0 C1.65 0.99 3.3 1.98 5 3 C4.360625 3.103125 3.72125 3.20625 3.0625 3.3125 C2.381875 3.539375 1.70125 3.76625 1 4 C0.67 4.99 0.34 5.98 0 7 C-0.66 7 -1.32 7 -2 7 C-1.34 4.69 -0.68 2.38 0 0 Z " fill="#103283" transform="translate(822,487)"/>
</svg>
