 <svg  version="1.0" xmlns="http://www.w3.org/2000/svg"  width="195.000000pt" height="300.000000pt" viewBox="0 0 195.000000 300.000000"  preserveAspectRatio="xMidYMid meet">  <g transform="translate(0.000000,300.000000) scale(0.100000,-0.100000)" fill="#6aa070" stroke="none"> <path d="M765 2873 c-333 -71 -609 -332 -696 -659 -27 -100 -36 -279 -19 -380 29 -185 82 -287 302 -579 229 -305 312 -431 379 -570 81 -171 156 -407 175 -552 l7 -53 42 0 42 0 7 53 c18 136 95 382 168 537 75 160 127 238 402 605 82 110 167 232 188 271 74 138 108 274 108 435 0 240 -86 452 -253 626 -183 191 -401 284 -661 282 -66 0 -152 -7 -191 -16z m418 -40 c37 -8 70 -19 73 -24 3 -5 14 -9 24 -9 10 0 26 -7 34 -16 9 -8 20 -13 25 -9 5 3 12 1 16 -5 3 -5 26 -18 50 -29 25 -11 45 -25 45 -30 0 -6 7 -11 15 -11 8 0 15 -5 15 -12 0 -6 3 -9 6 -5 10 9 177 -161 169 -173 -3 -6 -1 -9 5 -8 7 2 24 -19 38 -47 15 -27 32 -54 38 -60 7 -5 17 -28 24 -50 7 -22 18 -53 26 -70 31 -69 50 -173 52 -285 3 -108 -2 -146 -37 -284 -11 -44 -94 -208 -119 -236 -9 -10 -22 -25 -27 -32 -6 -7 -34 -43 -63 -80 -28 -37 -52 -71 -52 -76 0 -5 -10 -18 -22 -29 -13 -11 -41 -46 -63 -78 -22 -31 -50 -70 -62 -85 -13 -15 -23 -33 -23 -39 0 -6 -3 -11 -7 -11 -5 0 -26 -27 -48 -60 -22 -33 -43 -60 -47 -60 -5 0 -8 -7 -8 -15 0 -8 -4 -15 -10 -15 -5 0 -10 -9 -10 -20 0 -11 -5 -20 -10 -20 -8 0 -85 -146 -95 -180 -1 -3 -14 -31 -28 -63 -15 -32 -27 -64 -27 -72 0 -7 -4 -16 -9 -19 -4 -3 -11 -20 -15 -38 -3 -18 -15 -55 -25 -83 -10 -27 -29 -96 -42 -152 -22 -101 -43 -132 -53 -80 -30 140 -58 243 -91 337 -7 19 -14 38 -14 42 -4 16 -32 84 -41 98 -6 8 -15 26 -21 40 -32 77 -79 163 -119 218 -25 35 -49 71 -55 80 -5 9 -29 42 -52 74 -24 31 -43 60 -43 65 0 4 -18 27 -40 51 -22 24 -40 47 -40 52 0 5 -11 20 -25 34 -14 14 -24 31 -23 38 2 7 -3 12 -9 11 -7 -2 -13 1 -13 6 0 4 -13 25 -30 46 -16 20 -27 41 -24 46 3 5 0 8 -7 7 -7 -2 -26 17 -43 42 -16 25 -38 51 -48 58 -10 7 -16 18 -13 23 4 5 -2 21 -13 37 -33 47 -37 56 -21 47 11 -7 11 -5 -1 9 -23 29 -60 148 -54 176 4 17 3 21 -4 12 -6 -9 -11 6 -16 49 -8 84 -7 227 2 213 4 -7 8 20 9 59 1 38 7 75 12 80 6 6 11 17 11 24 0 23 60 144 69 139 5 -3 9 0 8 7 -1 33 4 46 17 41 8 -3 18 7 26 25 7 17 15 31 19 31 4 0 14 13 24 29 20 34 117 129 174 171 90 66 248 129 373 149 78 12 208 17 217 8 3 -4 22 -7 42 -6 l36 1 -40 13 -40 14 40 -5 c22 -3 70 -12 108 -21z"/> <path d="M875 2783 c-203 -25 -367 -104 -505 -242 -67 -67 -94 -104 -125 -166 -21 -44 -38 -84 -37 -88 1 -4 -7 -26 -18 -49 -11 -23 -20 -53 -20 -67 0 -14 -3 -44 -7 -66 -5 -31 -8 -35 -14 -20 -6 15 -8 11 -8 -17 -1 -22 4 -38 10 -38 7 0 8 -7 4 -17 -9 -22 -9 -25 5 -148 6 -55 15 -104 20 -109 6 -6 10 -17 10 -26 0 -8 19 -51 41 -95 23 -44 40 -81 39 -83 -6 -9 63 -82 72 -76 6 4 6 0 -1 -14 -9 -16 -7 -19 7 -18 10 0 16 -6 16 -16 -1 -10 2 -15 7 -12 5 3 21 -7 36 -22 16 -14 21 -24 13 -20 -8 4 -6 1 4 -6 11 -7 28 -21 38 -30 10 -10 21 -19 25 -20 5 -2 7 -7 5 -11 -1 -5 2 -6 8 -2 5 3 23 -3 39 -14 16 -12 34 -21 40 -21 6 0 11 -4 11 -9 0 -5 14 -12 30 -16 17 -4 28 -10 26 -14 -3 -4 0 -8 7 -8 7 -1 39 -8 72 -17 32 -9 72 -16 88 -16 15 0 26 -3 24 -7 -3 -5 51 -7 119 -6 115 2 196 15 259 42 190 83 322 188 410 325 111 175 157 392 120 572 -43 208 -121 347 -263 467 -24 20 -40 37 -36 37 10 0 -32 25 -117 69 -146 77 -314 112 -454 94z m295 -63 c524 -156 727 -774 399 -1213 -98 -130 -268 -241 -434 -283 -111 -27 -277 -23 -390 11 -266 78 -460 274 -537 542 -30 103 -31 284 -4 388 54 205 182 374 364 480 81 48 131 67 233 90 92 21 273 14 369 -15z"/> <path d="M847 2489 c-21 -11 -46 -34 -55 -50 l-17 -29 -126 0 c-115 0 -129 -2 -178 -26 -95 -48 -137 -136 -129 -267 6 -84 28 -135 85 -189 42 -40 108 -78 136 -78 16 0 17 -5 10 -32 -11 -46 -7 -106 8 -124 11 -13 14 -11 23 17 14 43 68 79 117 79 29 0 46 -8 73 -34 20 -18 37 -41 37 -50 1 -9 2 -21 3 -26 1 -7 67 -12 188 -13 l187 -2 5 31 c9 43 55 84 103 91 55 7 100 -18 122 -68 17 -37 20 -39 35 -24 45 45 -7 149 -137 272 -143 136 -243 178 -427 178 -200 0 -244 -25 -275 -162 -10 -43 -19 -80 -21 -81 -5 -7 -99 39 -132 65 -46 35 -74 101 -74 174 0 73 15 119 50 152 47 45 91 57 209 57 l108 0 16 -29 c23 -39 93 -71 157 -71 48 0 52 2 52 23 0 22 3 23 54 19 40 -3 54 -1 59 10 11 30 -9 41 -62 36 l-51 -5 0 50 0 50 49 -7 c37 -5 51 -3 61 9 21 25 -2 37 -59 34 -47 -4 -51 -2 -51 19 0 20 -4 22 -57 22 -38 -1 -71 -8 -96 -21z m135 -27 c6 -6 7 -16 0 -28 -13 -25 -17 -74 -8 -96 14 -32 3 -53 -32 -56 -38 -4 -112 26 -112 45 0 7 -5 13 -11 13 -5 0 -7 5 -4 10 3 6 -3 10 -14 10 -10 0 -21 5 -23 12 -5 15 52 74 89 93 29 15 98 14 115 -3z m123 -377 c28 -9 52 -20 55 -24 3 -3 17 -12 31 -19 14 -8 44 -30 66 -50 23 -21 50 -44 62 -52 12 -8 21 -17 21 -20 0 -3 20 -28 45 -54 51 -55 55 -66 23 -60 -77 14 -100 15 -132 4 -20 -6 -34 -15 -31 -19 2 -5 -7 -14 -20 -21 -13 -7 -29 -26 -34 -42 l-10 -29 -157 3 c-142 3 -157 5 -169 23 -8 11 -19 25 -25 32 -5 7 -10 16 -10 20 0 4 -14 16 -31 26 -38 21 -117 22 -147 1 -29 -20 -61 -11 -42 11 10 13 10 19 -4 33 -9 10 -16 23 -16 28 0 5 4 3 8 -4 16 -24 60 34 72 94 6 30 17 60 24 67 7 7 11 17 9 24 -7 19 59 45 127 50 36 3 66 6 67 7 8 7 179 -15 218 -29z"/> <path d="M663 1735 c-47 -33 -36 -116 18 -139 41 -17 75 -9 100 23 26 32 20 88 -12 114 -26 21 -77 22 -106 2z m94 -48 c10 -21 -4 -67 -20 -67 -5 0 -5 5 -1 11 5 8 1 8 -14 0 -25 -13 -45 -14 -37 -2 3 5 1 12 -5 16 -15 9 -12 41 4 58 20 19 61 10 73 -16z"/> <path d="M1275 1725 c-66 -65 15 -172 98 -129 15 8 32 27 38 42 32 83 -73 151 -136 87z m80 -15 c-3 -5 1 -10 9 -10 10 0 13 -7 11 -21 -8 -39 -16 -59 -26 -59 -6 0 -7 5 -3 11 5 8 1 8 -14 0 -15 -8 -22 -7 -33 7 -8 9 -14 24 -13 32 1 8 2 20 3 27 1 10 21 18 59 22 7 0 10 -3 7 -9z"/> <path d="M1630 2438 c0 -10 3 -18 8 -18 13 0 69 -103 96 -179 15 -43 31 -117 38 -175 9 -86 8 -115 -6 -196 -10 -52 -19 -102 -20 -110 -7 -35 -88 -206 -105 -220 -3 -3 -20 -25 -36 -50 -17 -24 -55 -68 -85 -97 -41 -40 -50 -53 -35 -53 14 0 16 -3 7 -12 -8 -8 -15 -8 -26 1 -8 7 -17 8 -20 3 -3 -6 1 -15 9 -22 12 -10 22 -7 52 16 57 42 66 53 59 70 -3 9 1 22 10 31 20 20 31 9 13 -14 -7 -10 -1 -7 15 7 86 76 174 257 201 415 12 68 7 217 -10 290 -24 108 -165 374 -165 313z m166 -535 c-2 -43 -5 -84 -5 -90 -1 -7 -5 -13 -9 -13 -4 0 -5 33 -1 73 4 39 8 80 8 90 1 9 4 17 7 17 3 0 3 -35 0 -77z m-31 -181 c-5 -4 -10 -11 -11 -17 -3 -33 -18 -74 -25 -69 -5 3 -9 -4 -9 -15 0 -12 -19 -49 -43 -84 -24 -34 -46 -70 -50 -80 -4 -10 -12 -14 -22 -11 -8 3 -12 10 -9 15 3 5 10 6 16 3 6 -4 9 -1 6 6 -2 7 6 24 18 37 26 28 104 183 104 207 0 9 8 16 18 16 9 0 13 -4 7 -8z m-214 -340 c-14 -26 -40 -46 -49 -38 -4 4 7 19 23 32 36 29 39 29 26 6z"/> <path d="M1365 1274 c-59 -40 -175 -91 -260 -112 -37 -9 -110 -15 -189 -16 -71 -1 -116 -4 -100 -7 47 -10 235 -9 284 1 84 19 190 54 190 63 0 5 7 7 15 4 9 -4 22 5 35 23 20 28 50 44 34 18 -5 -8 -2 -9 10 -5 10 4 21 7 24 7 4 0 0 4 -8 10 -8 5 -11 12 -7 16 3 4 13 2 20 -5 11 -9 17 -8 27 3 13 17 6 36 -13 35 -7 0 -34 -16 -62 -35z"/> </g> </svg> 